<svg width="167" height="27" viewBox="0 0 167 27" fill="none" xmlns="http://www.w3.org/2000/svg">
<g id="Temelio logo">
<g id="Group">
<path id="Vector" d="M31.3468 4.89502L27.318 0.224327C27.1962 0.0837042 27.0136 0 26.8166 0H4.67423C4.48084 0 4.29462 0.0837042 4.17286 0.224327L0.144041 4.89502C-0.196171 5.28676 0.104648 5.87269 0.645406 5.87269H30.8455C31.3862 5.87269 31.6835 5.28676 31.3468 4.89502Z" fill="#2F85A5"/>
<path id="Vector_2" d="M23.4366 10.0017C23.3256 9.80755 23.1071 9.68701 22.8708 9.68701H8.61412C8.37776 9.68701 8.15931 9.80755 8.04829 10.0017L5.36241 14.6724C5.13321 15.0742 5.4412 15.5564 5.92824 15.5564H25.5602C26.0473 15.5564 26.3553 15.0709 26.1261 14.6724L23.4402 10.0017H23.4366Z" fill="#2F85A5"/>
<path id="Vector_3" d="M19.3796 19.7605C19.29 19.5295 19.0537 19.3755 18.7887 19.3755H12.6971C12.4321 19.3755 12.1957 19.5295 12.1062 19.7605L10.2655 24.458C10.1151 24.8431 10.4195 25.2482 10.8564 25.2482H20.633C21.0699 25.2482 21.3743 24.8431 21.2239 24.458L19.3831 19.7605H19.3796Z" fill="#2F85A5"/>
</g>
<g id="Temelio">
<path d="M52.226 25.565V5.06238H43.5781V0.177734H65.887V5.06238H57.2391V25.565H52.226Z" fill="#1D2035"/>
<path d="M70.7899 26.0792C65.6482 26.0792 62.049 22.3836 62.049 17.1776C62.049 12.0037 65.6482 8.34024 70.7899 8.34024C75.2247 8.34024 78.6311 11.7466 78.6311 17.0812V18.6237H66.9015C67.1264 20.7768 68.3476 22.1908 70.8221 22.1908C72.4931 22.1908 73.5857 21.291 73.7786 20.1341H78.5347C78.0205 23.7654 74.8712 26.0792 70.7899 26.0792ZM66.9336 15.6993H73.8428C73.7464 13.8355 72.6217 12.4536 70.5971 12.4536C68.3476 12.4536 67.2228 13.7712 66.9336 15.6993Z" fill="#1D2035"/>
<path d="M81.6004 25.565V8.85441H86.3565V11.2646C87.4812 9.46499 89.3451 8.34024 92.0124 8.34024C94.6797 8.34024 96.4471 9.40072 97.3791 11.5217C99.018 9.24004 101.3 8.34024 103.871 8.34024C108.048 8.34024 110.105 11.0075 110.105 16.1171V25.565H105.252V16.3742C105.252 13.9319 104.031 12.4536 101.974 12.4536C99.6607 12.4536 98.2146 14.2532 98.2146 17.0169V25.565H93.3942V16.3742C93.3942 13.9319 92.1731 12.4536 90.1164 12.4536C87.8026 12.4536 86.3565 14.2532 86.3565 17.0169V25.565H81.6004Z" fill="#1D2035"/>
<path d="M121.568 26.0792C116.427 26.0792 112.827 22.3836 112.827 17.1776C112.827 12.0037 116.427 8.34024 121.568 8.34024C126.003 8.34024 129.409 11.7466 129.409 17.0812V18.6237H117.68C117.905 20.7768 119.126 22.1908 121.6 22.1908C123.272 22.1908 124.364 21.291 124.557 20.1341H129.313C128.799 23.7654 125.65 26.0792 121.568 26.0792ZM117.712 15.6993H124.621C124.525 13.8355 123.4 12.4536 121.375 12.4536C119.126 12.4536 118.001 13.7712 117.712 15.6993Z" fill="#1D2035"/>
<path d="M132.379 25.565V0.177734H137.135V25.565H132.379Z" fill="#1D2035"/>
<path d="M143.299 6.79772C141.532 6.79772 140.246 5.51228 140.246 3.77695C140.246 2.04161 141.532 0.82045 143.299 0.82045C145.035 0.82045 146.32 2.04161 146.32 3.77695C146.32 5.51228 145.035 6.79772 143.299 6.79772ZM140.889 25.565V8.85441H145.677V25.565H140.889Z" fill="#1D2035"/>
<path d="M157.691 26.0792C152.453 26.0792 148.79 22.3836 148.79 17.1776C148.79 12.0037 152.453 8.34024 157.691 8.34024C162.929 8.34024 166.625 12.0037 166.625 17.1776C166.625 22.3836 162.929 26.0792 157.691 26.0792ZM157.691 21.9658C160.134 21.9658 161.837 19.9734 161.837 17.1776C161.837 14.4139 160.134 12.4536 157.691 12.4536C155.281 12.4536 153.578 14.4139 153.578 17.1776C153.578 19.9734 155.281 21.9658 157.691 21.9658Z" fill="#1D2035"/>
</g>
</g>
</svg>